<svg xmlns="http://www.w3.org/2000/svg" width="1080" height="1080" viewBox="0 0 1080 1080" version="1.1">
	<path d="M 172.500 1.539 C 140.894 5.692, 106.379 20.049, 79.519 40.216 C 39.694 70.118, 13.027 113.222, 2.755 164.294 L 0.501 175.500 0.205 534 C -0.004 786.301, 0.228 895.314, 0.990 902 C 10.424 984.875, 69.754 1053.200, 150.305 1073.952 C 175.509 1080.445, 149.219 1080.062, 545.500 1079.717 L 905.500 1079.404 915.686 1077.292 C 971.020 1065.819, 1015.480 1036.574, 1046.201 991.442 C 1062.781 967.085, 1074.880 935.265, 1078.214 907.250 C 1078.885 901.613, 1079.786 897, 1080.217 897 C 1080.648 897, 1080.993 735.788, 1080.985 538.750 C 1080.976 341.712, 1080.622 181.047, 1080.197 181.715 C 1079.772 182.384, 1078.879 178.344, 1078.210 172.715 C 1074.469 141.286, 1060.414 107.152, 1039.996 79.914 C 1008.101 37.365, 957.864 7.935, 906.038 1.437 C 889.716 -0.609, 188.108 -0.512, 172.500 1.539 M 0.495 540 C 0.495 737.175, 0.609 817.838, 0.750 719.250 C 0.890 620.663, 0.890 459.338, 0.750 360.750 C 0.609 262.163, 0.495 342.825, 0.495 540 M 444.707 242.250 C 442.141 253.387, 426.963 318.975, 410.978 388 C 394.992 457.025, 369.571 566.825, 354.487 632 C 339.403 697.175, 322.395 770.637, 316.691 795.250 L 306.321 840 564.552 840 L 822.783 840 823.337 837.750 C 826.199 826.127, 859 683.836, 859 683.045 C 859 682.323, 809.906 682, 700.155 682 L 541.309 682 547.185 656.750 C 550.417 642.862, 566.972 571.425, 583.973 498 C 600.975 424.575, 622.129 333.225, 630.981 295 C 639.833 256.775, 647.314 224.713, 647.605 223.750 C 648.107 222.092, 642.937 222, 548.753 222 L 449.372 222 444.707 242.250" stroke="none" fill="#000000" fill-rule="evenodd"/>
</svg>